HIERARCHY
ROOT Hips
{
	OFFSET 0.000000 0.000000 0.000000
	CHANNELS 6 Xposition Yposition Zposition Xrotation Yrotation Zrotation
	JOINT LeftUpLeg_virtual
	{
		OFFSET 0.000000 0.000000 0.000000
		CHANNELS 3 Xrotation Yrotation Zrotation
		JOINT LeftUpLeg
		{
			OFFSET 13.026900 -6.336304 -1.092800
			CHANNELS 3 Xrotation Yrotation Zrotation
			JOINT LeftLeg
			{
				OFFSET 0.524474 -46.096886 9.782700
				CHANNELS 3 Xrotation Yrotation Zrotation
				JOINT LeftFoot
				{
					OFFSET -0.524474 -53.427422 -12.948200
					CHANNELS 3 Xrotation Yrotation Zrotation
					JOINT LeftToeBase
					{
						OFFSET 0.192200 -14.009700 16.364100
						CHANNELS 3 Xrotation Yrotation Zrotation
						JOINT LeftToe_End
						{
							OFFSET -1.784700 -0.561700 9.474800
							CHANNELS 3 Xrotation Yrotation Zrotation
							End Site
							{
								OFFSET 0 0 0
							}
						}
					}
				}
			}
		}
	}
	JOINT RightUpLeg_virtual
	{
		OFFSET 0.000000 0.000000 0.000000
		CHANNELS 3 Xrotation Yrotation Zrotation
		JOINT RightUpLeg
		{
			OFFSET -12.883000 -6.336304 -1.092800
			CHANNELS 3 Xrotation Yrotation Zrotation
			JOINT RightLeg
			{
				OFFSET -0.524587 -46.096825 9.782800
				CHANNELS 3 Xrotation Yrotation Zrotation
				JOINT RightFoot
				{
					OFFSET 0.524587 -53.427383 -12.948300
					CHANNELS 3 Xrotation Yrotation Zrotation
					JOINT RightToeBase
					{
						OFFSET -0.192200 -14.009700 16.364100
						CHANNELS 3 Xrotation Yrotation Zrotation
						JOINT RightToe_End
						{
							OFFSET 1.784700 -0.561700 9.474800
							CHANNELS 3 Xrotation Yrotation Zrotation
							End Site
							{
								OFFSET 0 0 0
							}
						}
					}
				}
			}
		}
	}
	JOINT Spine_virtual
	{
		OFFSET 0.000000 0.000000 0.000000
		CHANNELS 3 Xrotation Yrotation Zrotation
		JOINT Spine
		{
			OFFSET 0.072000 7.257294 -0.789700
			CHANNELS 3 Xrotation Yrotation Zrotation
			JOINT Spine1
			{
				OFFSET 0.000000 12.508769 -0.658067
				CHANNELS 3 Xrotation Yrotation Zrotation
				JOINT Spine1_split
				{
					OFFSET 0.000000 12.508769 -0.658067
					CHANNELS 3 Xrotation Yrotation Zrotation
					JOINT Spine2
					{
						OFFSET 0.000000 12.508769 -0.658067
						CHANNELS 3 Xrotation Yrotation Zrotation
						JOINT Neck_virtual
						{
							OFFSET 0.000000 0.000000 0.000000
							CHANNELS 3 Xrotation Yrotation Zrotation
							JOINT Neck
							{
								OFFSET 0.000000 14.033295 7.520400
								CHANNELS 3 Xrotation Yrotation Zrotation
								JOINT Head
								{
									OFFSET 0.000000 8.198502 5.703100
									CHANNELS 3 Xrotation Yrotation Zrotation
									JOINT HeadTop_End
									{
										OFFSET 0.000000 17.760803 13.332701
										CHANNELS 3 Xrotation Yrotation Zrotation
										End Site
										{
											OFFSET 0 0 0
										}
									}
								}
							}
						}
						JOINT LeftShoulder_virtual
						{
							OFFSET 0.000000 0.000000 0.000000
							CHANNELS 3 Xrotation Yrotation Zrotation
							JOINT LeftShoulder
							{
								OFFSET 6.292450 5.785301 -0.669000
								CHANNELS 3 Xrotation Yrotation Zrotation
								JOINT LeftShoulder_split
								{
									OFFSET 6.292450 5.785301 -0.669000
									CHANNELS 3 Xrotation Yrotation Zrotation
									JOINT LeftArm
									{
										OFFSET 13.907140 -6.093903 1.965100
										CHANNELS 3 Xrotation Yrotation Zrotation
										JOINT LeftForeArm
										{
											OFFSET 34.140198 0.000000 0.000000
											CHANNELS 3 Xrotation Yrotation Zrotation
											JOINT LeftHand
											{
												OFFSET 40.960209 0.000000 0.000000
												CHANNELS 3 Xrotation Yrotation Zrotation
												End Site
												{
													OFFSET 0 0 0
												}
											}
										}
									}
								}
							}
						}
						JOINT RightShoulder_virtual
						{
							OFFSET 0.000000 0.000000 0.000000
							CHANNELS 3 Xrotation Yrotation Zrotation
							JOINT RightShoulder
							{
								OFFSET -6.292450 5.785301 -0.669000
								CHANNELS 3 Xrotation Yrotation Zrotation
								JOINT RightShoulder_split
								{
									OFFSET -6.292450 5.785301 -0.669000
									CHANNELS 3 Xrotation Yrotation Zrotation
									JOINT RightArm
									{
										OFFSET -13.907140 -6.093903 1.965100
										CHANNELS 3 Xrotation Yrotation Zrotation
										JOINT RightForeArm
										{
											OFFSET -34.140198 0.000000 0.000000
											CHANNELS 3 Xrotation Yrotation Zrotation
											JOINT RightHand
											{
												OFFSET -40.960209 0.000000 0.000000
												CHANNELS 3 Xrotation Yrotation Zrotation
												End Site
												{
													OFFSET 0 0 0
												}
											}
										}
									}
								}
							}
						}
					}
				}
			}
		}
	}
}
MOTION
Frames: 9
Frame Time: 0.03333333
3.577641 103.701805 3.301655 0.000000 0.000000 0.000000 5.227057 -28.706329 -0.133924 -53.988346 7.243699 15.656624 35.916003 -23.729773 4.081806 -3.457772 -4.531754 -10.267992 -5.465986 0.104409 2.398887 0.000000 0.000000 0.000000 1.829149 -23.708446 -0.348931 -18.947385 -17.922888 -33.159021 10.206238 -10.874335 -1.651006 7.327013 -5.100830 22.230459 -20.487791 -4.445052 3.641154 0.000000 0.000000 0.000000 2.275635 -32.521276 -1.007385 21.229109 -1.546893 -4.993149 6.284650 -1.890755 1.233935 4.417313 -17.181462 6.015945 0.000000 0.000000 0.000000 6.935923 -0.640330 -1.011025 17.743877 10.539261 13.774081 -35.680700 27.400101 21.036655 0.000000 0.000000 0.000000 8.682466 -1.271580 0.133664 -1.037344 -12.071222 -18.672293 -1.405837 -1.879312 -1.542075 -37.413495 31.815066 -17.401189 3.603330 -16.577062 -4.884985 0.000000 0.000000 0.000000 6.514129 -1.054004 0.049750 -0.398069 -12.729614 22.321656 -14.429389 -6.193075 0.177950 19.577204 15.068704 33.722225 5.017784 51.584853 8.667260 0.000000 0.000000 0.000000 
0.911589 104.863022 4.100315 0.000000 0.000000 0.000000 5.599072 -24.531154 0.063893 -54.136172 11.406755 15.326743 36.202089 -25.031118 3.295373 1.479516 -6.311046 -10.524158 -5.805043 -0.160334 2.811164 0.000000 0.000000 0.000000 2.294640 -20.962960 0.469866 -16.073423 -15.290210 -30.186236 16.297550 -10.471643 -1.338376 5.780536 -5.180556 20.642872 -18.261624 -4.351757 4.274746 0.000000 0.000000 0.000000 2.477848 -28.929184 0.303605 19.033464 -1.291648 -5.290931 6.436354 -1.306798 1.533083 4.968477 -11.858391 5.957510 0.000000 0.000000 0.000000 5.779554 -0.332516 -0.716907 20.294640 9.968997 12.363385 -33.403921 25.630787 20.939207 0.000000 0.000000 0.000000 7.990044 -0.665051 0.198763 -0.569990 -9.732515 -18.912193 -0.293640 -0.946874 -0.373666 -40.897294 30.999182 -16.011992 2.118231 -23.470808 -5.601319 0.000000 0.000000 0.000000 6.169156 -0.574296 0.193766 -1.351766 -9.964056 22.797196 -14.988544 -2.640277 0.628326 17.610615 16.137012 35.049652 5.933519 50.933318 8.424796 0.000000 0.000000 0.000000 
-2.297506 106.845757 5.162704 0.000000 0.000000 0.000000 5.602314 -15.159397 1.341336 -51.441672 16.108567 12.164927 31.834542 -25.677312 0.138887 9.950027 -9.163565 -9.917719 -6.000165 -0.694646 3.931105 0.000000 0.000000 0.000000 2.785656 -13.572960 2.179302 -10.278656 -10.953251 -25.897308 24.228050 -8.650720 -1.172193 5.547358 -3.577996 20.745557 -19.319142 -3.807001 3.810042 0.000000 0.000000 0.000000 3.164998 -20.520045 2.456189 15.678108 -0.374663 -5.525201 5.492407 0.203290 2.403919 5.466100 -7.906816 4.628873 0.000000 0.000000 0.000000 3.707364 1.025373 0.351445 24.461143 9.005003 10.415263 -26.207014 21.526600 18.458817 0.000000 0.000000 0.000000 6.207030 1.075750 1.074999 0.029503 -6.308148 -18.146636 0.670162 0.027100 0.446278 -39.930010 26.961986 -16.099062 3.876473 -33.425013 -3.503773 0.000000 0.000000 0.000000 4.808869 1.054260 1.120235 -1.999275 -7.141935 24.106646 -14.187565 -0.963314 -0.262000 15.335682 16.571173 34.692686 10.268188 48.822199 5.571341 0.000000 0.000000 0.000000 
-5.423122 108.866562 6.319763 0.000000 0.000000 0.000000 4.984154 -3.011505 3.331860 -46.183687 19.427078 6.688598 24.714710 -24.917729 -4.022840 19.519631 -11.072974 -7.529219 -6.612938 -1.329192 5.165423 0.000000 0.000000 0.000000 2.956480 -2.900157 4.297583 -2.537056 -6.173305 -21.194801 30.427021 -6.209039 -1.479745 5.641321 -0.780229 20.906680 -22.002309 -2.806191 2.549386 0.000000 0.000000 0.000000 3.378307 -9.091483 4.824266 11.850005 1.014565 -5.495254 3.603604 2.374218 3.570888 4.754215 -4.503150 2.673791 0.000000 0.000000 0.000000 1.084789 3.159987 1.865226 28.878726 8.229444 8.260744 -16.537541 15.562530 15.141133 0.000000 0.000000 0.000000 3.625889 3.543178 2.329341 0.491316 -2.439397 -16.640042 1.745934 1.286564 1.203200 -36.481184 19.104497 -16.948612 8.556323 -39.648312 1.682337 0.000000 0.000000 0.000000 2.655025 3.472096 2.451125 -2.353854 -4.794596 25.561746 -12.167333 -1.431484 -1.574983 13.926547 15.664110 32.282838 16.419683 44.685300 1.442711 0.000000 0.000000 0.000000 
-8.004093 110.376877 6.980667 0.000000 0.000000 0.000000 3.545008 9.623612 5.965293 -39.352596 19.972286 -0.168646 17.465548 -23.466452 -7.380831 27.151243 -10.807739 -4.225465 -7.842340 -1.871425 5.919862 0.000000 0.000000 0.000000 1.895531 8.736048 6.328013 5.302765 -2.792507 -16.815707 33.611071 -4.676120 -1.517976 6.703520 2.503088 19.241194 -21.998870 -1.318376 1.003891 0.000000 0.000000 0.000000 2.808376 3.772240 7.039432 8.160347 2.694509 -4.952916 1.071094 4.779455 4.654826 1.469988 -2.585666 0.331507 0.000000 0.000000 0.000000 -1.287098 5.615699 3.315468 32.087669 7.762054 5.680334 -7.441611 8.247539 12.271525 0.000000 0.000000 0.000000 0.764308 6.224932 3.510626 0.728340 1.587224 -14.483310 2.840200 2.936506 1.300588 -33.153246 7.508307 -16.550269 12.248694 -38.665301 7.103818 0.000000 0.000000 0.000000 0.125458 6.163526 3.768034 -2.431527 -2.752931 26.717487 -9.374167 -2.340147 -2.395840 13.742876 13.449436 28.739909 22.485869 38.927516 -2.410968 0.000000 0.000000 0.000000 
-9.890415 110.762581 7.331284 0.000000 0.000000 0.000000 0.847911 20.207634 8.980311 -32.163989 17.184565 -6.978320 12.156790 -22.010966 -8.840284 29.653464 -8.019702 -0.217880 -8.572097 -2.159557 5.766039 0.000000 0.000000 0.000000 -0.645188 18.645003 8.497446 10.950234 -1.980584 -13.137217 33.565076 -4.629347 -0.573827 9.610948 5.746040 16.284856 -18.352334 0.326916 -0.713155 0.000000 0.000000 0.000000 1.418643 15.477726 8.895792 5.259164 4.378434 -3.976798 -1.707261 7.056065 5.295362 -1.146376 -2.956438 -1.310677 0.000000 0.000000 0.000000 -2.951349 8.047433 4.257901 32.989182 8.022134 2.491899 -1.110224 0.688541 10.110238 0.000000 0.000000 0.000000 -1.785656 8.703801 4.220092 0.647318 5.392129 -11.934077 2.902379 5.014721 0.457316 -32.414360 -3.682321 -13.699297 10.636688 -30.686230 9.466262 0.000000 0.000000 0.000000 -2.205819 8.595005 4.589526 -2.269882 -0.870143 26.931535 -6.751366 -1.863248 -2.769909 14.691735 10.684162 24.968446 27.112234 32.491394 -4.934597 0.000000 0.000000 0.000000 
-11.125343 110.438362 6.940426 0.000000 0.000000 0.000000 -3.201041 28.774177 12.283381 -25.755583 12.099451 -12.863181 9.190556 -21.459438 -8.671017 25.742390 -3.977293 4.454654 -7.868491 -2.179845 4.632693 0.000000 0.000000 0.000000 -4.443443 26.729682 10.824242 14.539111 -3.561984 -10.281864 31.343270 -5.446721 1.232159 14.066366 8.633555 13.957764 -15.311846 1.828817 -2.950369 0.000000 0.000000 0.000000 -0.521519 25.809615 10.333522 3.452453 5.992791 -2.704496 -4.012850 9.163827 5.395302 -1.713126 -3.759307 -0.030026 0.000000 0.000000 0.000000 -3.927373 10.218798 4.535406 31.221976 9.219830 -1.098317 1.588577 -5.787139 8.237240 0.000000 0.000000 0.000000 -3.691826 10.830318 4.282547 0.298246 8.783195 -9.327436 3.491264 6.917830 -0.044295 -34.532214 -10.593944 -9.326588 3.879639 -20.639916 9.289221 0.000000 0.000000 0.000000 -3.811699 10.657364 4.575303 -1.905890 1.209856 25.901005 -6.356253 -1.017783 -2.141167 16.085618 7.997556 21.111522 29.750047 26.886872 -5.935967 0.000000 0.000000 0.000000 
-11.918336 110.000961 6.181496 0.000000 0.000000 0.000000 -8.600221 35.417755 15.834520 -21.735079 5.999599 -17.198601 9.021539 -23.391685 -7.318929 18.754156 -1.308092 7.179072 -6.438679 -1.875184 2.743015 0.000000 0.000000 0.000000 -9.357235 32.532068 13.364000 16.723346 -5.918976 -8.271728 28.422140 -6.392780 3.267960 19.105996 11.017565 13.272686 -15.506083 3.164702 -5.657321 0.000000 0.000000 0.000000 -2.978847 34.303543 11.622199 3.011486 7.294097 -1.452790 -5.305226 10.962775 5.058052 -1.356609 -5.523820 2.047999 0.000000 0.000000 0.000000 -4.159067 11.856810 4.250843 27.599601 11.275847 -4.979548 0.418552 -10.451252 6.212196 0.000000 0.000000 0.000000 -4.728554 12.511936 3.904781 -0.056315 11.687427 -7.102741 3.143913 7.795303 -1.035073 -38.032088 -10.746340 -3.952169 -5.272093 -14.573047 7.978656 0.000000 0.000000 0.000000 -4.410056 12.261499 3.890272 -1.366957 3.727501 23.668234 -7.667811 -0.532215 -0.695709 16.718806 6.121482 16.791405 30.557925 23.419587 -5.829493 0.000000 0.000000 0.000000 
-12.470585 109.863159 5.394241 0.000000 0.000000 0.000000 -14.439790 40.073782 19.026651 -20.568167 0.789052 -19.895819 11.290353 -27.357425 -5.143891 14.180301 -0.816477 5.982502 -5.403961 -1.343960 0.793668 0.000000 0.000000 0.000000 -14.524635 36.281477 15.898385 18.532977 -7.594712 -7.089598 25.242632 -7.313183 4.963327 22.744808 12.292823 13.863974 -17.420462 4.331654 -8.385384 0.000000 0.000000 0.000000 -6.031196 40.517457 13.094543 3.934700 8.011313 -0.613143 -5.507185 12.255260 4.488760 1.071064 -7.651283 4.010971 0.000000 0.000000 0.000000 -3.880611 12.903047 3.775740 22.970208 14.518305 -8.642508 -3.959177 -12.241808 3.636629 0.000000 0.000000 0.000000 -5.031425 13.684949 3.389421 -0.270302 13.751729 -5.728081 1.123902 6.985674 -2.671477 -41.739255 -3.877797 2.082818 -14.736553 -14.724226 5.383293 0.000000 0.000000 0.000000 -4.146514 13.353847 2.857115 -0.565643 6.426848 20.603103 -9.554578 -0.539164 1.506834 16.110528 5.290223 11.675501 29.593147 22.403032 -4.744244 0.000000 0.000000 0.000000 
